<svg xmlns="http://www.w3.org/2000/svg" width="13" height="14"><path d="M12.257 1a.72.72 0 0 0-.08.007H8.662a.72.72 0 0 0-.634 1.086.72.72 0 0 0 .634.358h1.867L3.821 9.159a.72.72 0 0 0 .318 1.219.72.72 0 0 0 .703-.199l6.708-6.708v1.867a.72.72 0 0 0 1.086.634.72.72 0 0 0 .358-.634V1.821a.72.72 0 0 0-.736-.82zm-10.814.007C.655 1.007 0 1.662 0 2.451v10.105C0 13.345.655 14 1.444 14h10.106c.789 0 1.444-.655 1.444-1.444V8.225a.72.72 0 0 0-1.086-.634.72.72 0 0 0-.358.634v4.331H1.444V2.451h4.331a.72.72 0 0 0 .634-1.086.72.72 0 0 0-.634-.358H1.444z" fill="#341f10"/><defs /></svg>
